# This file uses centimeters as units for non-parametric coordinates.

mtllib plane.mtl
g default
v -20.712059 -0.000000 20.417277
v 16.472173 -0.000000 20.417277
v -20.712059 -0.000000 -17.290499
v 16.472173 -0.000000 -17.290499
vt 0.000000 0.000000
vt 1.000000 0.000000
vt 0.000000 1.000000
vt 1.000000 1.000000
vn -0.000000 1.000000 0.000000
vn -0.000000 1.000000 0.000000
vn -0.000000 1.000000 0.000000
vn -0.000000 1.000000 0.000000
s 1
g pPlane1
usemtl lambert6SG
f 1/1/1 2/2/2 3/3/3
f 3/3/3 2/2/2 4/4/4
