# This file uses centimeters as units for non-parametric coordinates.

mtllib oilspill.mtl
g default
v -0.396977 0.002941 0.396977
v 0.396977 0.002941 0.396977
v -0.396977 0.002941 -0.396977
v 0.396977 0.002941 -0.396977
vt 0.007278 0.545345
vt 0.458391 0.545345
vt 0.007278 0.996458
vt 0.458391 0.996458
vn 0.000000 1.000000 0.000000
vn 0.000000 1.000000 0.000000
vn 0.000000 1.000000 0.000000
vn 0.000000 1.000000 0.000000
s 1
g pPlane5
usemtl initialShadingGroup
f 1/1/1 2/2/2 3/3/3
f 3/3/3 2/2/2 4/4/4
